# Blender 4.3.2
# www.blender.org
mtllib fox.mtl
o Cube
v 1.610443 -0.863835 0.710847
v 1.610443 0.268096 0.710847
v 1.090308 -0.863835 -0.601997
v 1.090308 0.268096 -0.601997
v 1.512144 -0.061548 -0.619044
v 1.929493 -0.061548 0.434363
v 1.933980 -0.391193 -0.636091
v 1.933980 -0.747430 -0.636091
v 2.248542 -0.747430 0.157879
v 2.248542 -0.391193 0.157879
v 2.993787 -0.569311 -0.596677
v 1.519966 -0.006576 -0.418899
v 1.798118 -0.006576 0.283168
v 1.720819 -0.061548 -0.092341
v 1.610443 -0.486524 0.710847
v 1.610443 -0.109214 0.710847
v 1.090308 -0.486524 -0.601997
v 1.090308 -0.109214 -0.601997
vn -0.0404 -0.0000 -0.9992
vn 0.1678 -0.9836 -0.0665
vn 0.5926 0.7705 -0.2348
vn 0.1678 0.9836 -0.0665
vn 0.0372 -0.0000 -0.9993
vn 0.7115 -0.0000 0.7027
vn -0.9157 -0.0000 -0.4018
vn -0.3920 -0.0000 0.9200
vn -0.7947 0.2837 0.5366
vn -0.9466 0.2837 0.1533
vn -0.8327 0.4448 0.3299
vn 0.1344 -0.9895 -0.0532
vn 0.6549 -0.0000 0.7557
vt 0.074192 0.328569
vt 0.039859 0.269562
vt 0.061037 0.186129
vt 0.113449 0.163068
vt 0.185217 0.279718
vt 0.129705 0.304144
vt 0.201700 0.506799
vt 0.064427 0.506799
vt 0.133063 0.348179
vt 0.290960 0.413879
vt 0.313387 0.331040
vt 0.450660 0.331040
vt 0.473087 0.413879
vt 0.382024 0.413879
vt 0.018680 0.352994
vt 0.382024 0.186627
vt 0.018680 0.018774
vt 0.254673 0.210896
vt 0.307085 0.233957
vt 0.212316 0.378251
vt 0.495515 0.496718
vt 0.442715 0.427693
vt 0.268532 0.496718
vt 0.321332 0.427693
vt 0.735959 0.246555
vt 0.759099 0.193755
vt 0.906840 0.246555
vt 0.849880 0.246555
vt 0.792919 0.246555
vt 0.735959 0.019572
vt 0.792919 0.019572
vt 0.849880 0.019572
vt 0.906840 0.019572
vt 0.759099 0.072372
vt 0.763731 0.133063
vt 0.246555 0.636232
vt 0.019572 0.636232
vt 0.212316 0.044030
vt 0.267828 0.068456
vt 0.233494 0.127463
vt 0.323340 0.092881
vt 0.378852 0.117306
s 0
usemtl Material.001
f 18/1/1 5/2/1 7/3/1 8/4/1 3/5/1 17/6/1
f 9/7/2 8/8/2 11/9/2
f 6/10/3 10/11/3 7/12/3 5/13/3 14/14/3
f 7/12/4 10/11/4 11/16/4
f 8/4/5 7/3/5 11/17/5
f 10/18/6 9/19/6 11/20/6
f 6/10/3 14/14/3 13/24/3
f 5/13/3 12/22/3 14/14/3
f 2/25/7 13/26/7 1/27/7 15/28/7 16/29/7
f 4/30/8 18/31/8 17/32/8 3/33/8 12/34/8
f 12/34/9 3/33/9 14/35/9
f 13/26/10 14/35/10 1/27/10
f 14/35/11 3/33/11 1/27/11
f 9/7/12 1/36/12 3/37/12 8/8/12
f 16/39/13 15/41/13 1/42/13 9/19/13 10/18/13 6/40/13
usemtl Material.002
f 4/15/1 5/2/1 18/1/1
f 5/13/3 4/21/3 12/22/3
f 2/23/3 6/10/3 13/24/3
f 2/38/13 16/39/13 6/40/13
o Cube.001
v -0.244325 -0.693908 0.212721
v -0.457342 -1.370900 0.450308
v -0.457342 -1.370900 -0.450308
v -0.244325 -0.693908 -0.212721
v 1.536724 -1.370900 0.450308
v 1.323758 -0.693908 0.212721
v 1.536724 -1.370900 -0.450308
v 1.323758 -0.693908 -0.212721
v 0.457816 -1.425331 -0.380539
v 0.537134 -0.853229 -0.179763
v 0.466243 -1.425331 0.380539
v 0.537134 -0.853229 0.179763
v -0.457342 -1.370900 0.000000
v -0.244325 -0.693908 0.000000
v 1.536724 -1.370900 0.000000
v 1.323758 -0.693908 0.000000
v 0.537333 -0.853229 0.000000
v 0.464505 -1.425331 0.000000
v 0.703307 -0.813399 -0.188003
v 0.880839 -0.773569 -0.196242
v 1.083173 -0.733738 -0.204482
v 0.680323 -1.411723 0.397981
v 0.924940 -1.398115 0.415424
v 1.216987 -1.384508 0.432866
v 1.216987 -1.384508 -0.432866
v 0.924940 -1.398115 -0.415424
v 0.676552 -1.411723 -0.397981
v 1.083173 -0.733738 0.204482
v 0.880839 -0.773569 0.196242
v 0.703307 -0.813399 0.188003
v 1.216993 -1.384508 0.000000
v 0.197869 -1.407187 -0.403796
v -0.089315 -1.389044 -0.427052
v 0.318600 -0.800122 0.190749
v 0.068746 -0.747015 0.201735
v 0.068746 -0.747015 -0.201735
v 0.318600 -0.800122 -0.190749
v -0.089315 -1.389044 0.427052
v 0.197869 -1.407187 0.403796
v -0.089156 -1.389044 0.000000
v 1.307064 -1.884671 0.341801
v 1.489487 -1.876907 0.351753
v 1.489487 -1.876907 0.094810
v 1.307058 -1.884671 0.094810
v 1.426273 -2.538840 0.220793
v 1.608876 -1.657368 -0.371704
v 1.836400 -1.647685 -0.384116
v 1.836400 -1.647685 -0.063677
v 1.608876 -1.657368 -0.063677
v 1.267771 -2.332934 -0.220793
v -0.371728 -1.967210 -0.114005
v -0.371728 -1.967210 -0.330260
v -0.181509 -1.975923 -0.319091
v -0.181468 -1.975923 -0.114005
v -0.299354 -2.538840 -0.219340
v -0.313496 -1.971370 0.110349
v -0.313496 -1.971370 0.354175
v -0.100899 -1.981194 0.110349
v -0.100951 -1.981194 0.341582
v -0.158570 -2.543752 0.229114
vn 0.1985 0.9801 -0.0000
vn -0.0883 0.3230 -0.9423
vn 0.0079 -0.1849 -0.9827
vn 0.0091 -0.2148 0.9766
vn -0.0655 -0.9979 0.0002
vn 0.9539 0.3001 -0.0000
vn 0.0957 0.3102 -0.9458
vn -0.1973 0.9803 -0.0000
vn 0.0514 -0.1893 -0.9806
vn 0.0538 -0.9985 -0.0002
vn -0.9539 0.3001 -0.0000
vn -0.9725 -0.2330 -0.0000
vn -0.0887 0.3227 0.9423
vn 0.0080 -0.1877 -0.9822
vn -0.0456 -0.1869 0.9813
vn 0.9957 -0.0929 -0.0000
vn -0.9842 -0.1772 -0.0000
vn -0.5714 -0.8207 -0.0000
vn -0.0454 -0.1897 0.9808
vn -0.9838 -0.1793 -0.0000
vn 0.9955 -0.0951 -0.0000
vn -0.0451 -0.1960 -0.9796
vn 0.6785 0.7346 -0.0000
vn -0.0408 -0.2739 -0.9609
vn -0.0091 -0.1892 0.9819
vn 0.0098 -0.2312 0.9729
vn 0.7696 -0.6386 -0.0000
vn -0.8927 0.4507 -0.0000
vn -0.9921 -0.1256 -0.0000
vn -0.9899 -0.1421 -0.0000
vn 0.9879 -0.1553 -0.0003
vn 0.0492 -0.1843 -0.9816
vn -0.0083 -0.1822 0.9832
vn 0.9788 -0.2049 -0.0002
vn 0.0487 -0.2006 0.9785
vn 0.9998 -0.0197 0.0003
vn 0.0540 -0.1445 0.9880
vn -0.0088 -0.1829 -0.9831
vn -0.9653 -0.2613 -0.0000
vn 0.9948 -0.1019 0.0002
vn -0.0095 -0.2056 -0.9786
vn 0.0953 0.3105 0.9458
vt 0.291265 0.774231
vt 0.291265 0.745055
vt 0.334209 0.746562
vt 0.368483 0.748069
vt 0.398461 0.749575
vt 0.398488 0.774231
vt 0.398461 0.798887
vt 0.368483 0.800394
vt 0.334209 0.801901
vt 0.291265 0.803408
vt 0.667220 0.239718
vt 0.668422 0.273150
vt 0.575451 0.290150
vt 0.579114 0.246417
vt 0.582283 0.206450
vt 0.584675 0.172420
vt 0.586538 0.142422
vt 0.660484 0.163318
vt 0.663012 0.186630
vt 0.665337 0.211488
vt 0.904435 0.452217
vt 0.860542 0.452218
vt 0.869940 0.382337
vt 0.894984 0.382337
vt 0.533540 0.937517
vt 0.534002 0.981408
vt 0.493141 0.929735
vt 0.492813 0.898501
vt 0.095426 0.734415
vt 0.095665 0.786609
vt 0.058841 0.789799
vt 0.019438 0.792989
vt 0.019460 0.734415
vt 0.019438 0.675842
vt 0.058841 0.679031
vt 0.094509 0.682221
vt 0.697758 0.322658
vt 0.725232 0.332479
vt 0.725232 0.429288
vt 0.667073 0.408498
vt 0.608914 0.387708
vt 0.670284 0.312837
vt 0.671697 0.134552
vt 0.593884 0.107406
vt 0.601715 0.068686
vt 0.610987 0.018973
vt 0.696367 0.059904
vt 0.683469 0.101526
vt 0.421250 0.748445
vt 0.445596 0.747315
vt 0.473344 0.746185
vt 0.506339 0.745055
vt 0.506339 0.774231
vt 0.506339 0.803408
vt 0.473344 0.802278
vt 0.445596 0.801147
vt 0.421250 0.800017
vt 0.522624 0.045627
vt 0.527317 0.019920
vt 0.124499 0.679829
vt 0.158556 0.677437
vt 0.198601 0.675044
vt 0.198602 0.734415
vt 0.198601 0.793786
vt 0.158556 0.791394
vt 0.125016 0.789001
vt 0.723016 0.788774
vt 0.693873 0.787371
vt 0.665592 0.697178
vt 0.727284 0.700150
vt 0.788975 0.703121
vt 0.752158 0.790178
vt 0.746448 0.616856
vt 0.779852 0.618464
vt 0.493145 0.689356
vt 0.470354 0.683811
vt 0.460560 0.608233
vt 0.489918 0.610314
vt 0.523465 0.612394
vt 0.563517 0.614474
vt 0.607367 0.616554
vt 0.578240 0.705989
vt 0.545244 0.700444
vt 0.517493 0.694900
vt 0.882428 0.290909
vt 0.575884 0.545010
vt 0.600902 0.546197
vt 0.689058 0.490323
vt 0.655873 0.478461
vt 0.285590 0.902030
vt 0.285590 0.842659
vt 0.355173 0.855663
vt 0.355173 0.889539
vt 0.252568 0.683433
vt 0.252568 0.725681
vt 0.592251 0.454134
vt 0.446204 0.872942
vt 0.641472 0.570083
vt 0.534474 0.294813
vt 0.531868 0.325933
vt 0.447328 0.236301
vt 0.885969 0.490470
vt 0.947732 0.490470
vt 0.938999 0.531596
vt 0.895048 0.531596
vt 0.119856 0.028225
vt 0.169582 0.019076
vt 0.168911 0.102789
vt 0.143204 0.107427
vt 0.401486 0.981408
vt 0.518916 0.366221
vt 0.562866 0.366221
vt 0.541317 0.464245
vt 0.464245 0.543407
vt 0.423158 0.553245
vt 0.423158 0.464354
vt 0.715639 0.616889
vt 0.686012 0.615462
vt 0.705010 0.537258
vt 0.885192 0.871897
vt 0.827639 0.882786
vt 0.827936 0.800235
vt 0.855575 0.795006
vt 0.447328 0.019511
vt 0.169582 0.182811
vt 0.827639 0.720946
vt 0.382762 0.531825
vt 0.353606 0.533327
vt 0.374876 0.453569
vt 0.938111 0.734853
vt 0.879537 0.734853
vt 0.891259 0.653666
vt 0.922974 0.653666
vt 0.384349 0.613780
vt 0.333865 0.616554
vt 0.078611 0.873165
vt 0.092695 0.824608
vt 0.172275 0.845107
vt 0.164230 0.873165
vt 0.766590 0.537258
vt 0.906683 0.576194
vt 0.246555 0.870810
vt 0.406108 0.698596
vt 0.363166 0.705989
vt 0.423745 0.611007
vt 0.440379 0.691204
s 0
usemtl Material.001
f 32/43/14 19/44/14 53/45/14 52/46/14 30/47/14 35/48/14 28/49/14 55/50/14 54/51/14 22/52/14
f 39/53/15 26/54/15 25/55/15 43/56/15 44/57/15 45/58/15 27/59/15 28/60/15 37/61/15 38/62/15
f 49/63/16 33/64/16 61/65/16 62/66/16
f 33/67/17 49/68/17 67/69/17 66/70/17
f 36/71/18 29/72/18 57/73/18 56/74/18 58/75/18 51/76/18 50/77/18 27/78/18
f 34/79/19 24/80/19 23/81/19 33/82/19 25/83/19 26/84/19
f 55/85/20 28/60/20 27/59/20 50/86/20 51/87/20 21/88/20 22/89/20 54/90/20
f 35/48/21 30/47/21 48/91/21 47/92/21 46/93/21 24/94/21 34/95/21 26/96/21 39/97/21 38/98/21 37/99/21 28/49/21
f 21/88/22 51/87/22 71/100/22 70/101/22
f 27/78/23 45/102/23 44/103/23 43/104/23 49/105/23 42/106/23 41/107/23 40/108/23 29/72/23 36/71/23
f 32/109/24 22/110/24 21/111/24 31/112/24 20/113/24 19/114/24
f 20/113/25 31/112/25 74/115/25 75/116/25
f 48/117/26 30/118/26 29/119/26 40/120/26 41/121/26 42/122/26 23/123/26 24/124/26 46/125/26 47/126/26
f 62/66/27 61/65/27 63/127/27
f 23/123/28 42/122/28 59/128/28 60/129/28
f 33/82/29 23/81/29 60/130/29 61/131/29
f 42/132/30 49/133/30 62/134/30 59/135/30
f 49/105/31 43/104/31 64/136/31 67/137/31
f 60/129/32 59/128/32 63/138/32
f 59/135/33 62/134/33 63/139/33
f 61/131/34 60/130/34 63/140/34
f 64/141/35 65/142/35 68/143/35
f 25/144/36 33/145/36 66/146/36 65/147/36
f 43/56/37 25/55/37 65/142/37 64/141/37
f 58/148/38 31/149/38 69/150/38 72/151/38
f 66/70/39 67/69/39 68/152/39
f 65/153/40 66/154/40 68/155/40
f 67/156/41 64/157/41 68/158/41
f 69/159/42 70/160/42 73/161/42
f 31/112/43 21/111/43 70/160/43 69/159/43
f 51/162/44 58/163/44 72/164/44 71/165/44
f 70/101/45 71/100/45 73/166/45
f 72/151/46 69/150/46 73/167/46
f 71/165/47 72/164/47 73/168/47
f 77/169/48 75/170/48 78/171/48
f 58/172/49 56/173/49 77/174/49 76/175/49
f 56/176/50 20/177/50 75/170/50 77/169/50
f 31/178/51 58/179/51 76/180/51 74/181/51
f 75/116/52 74/115/52 78/182/52
f 76/175/53 77/174/53 78/183/53
f 74/181/54 76/180/54 78/184/54
f 53/185/55 19/186/55 20/177/55 56/176/55 57/187/55 29/119/55 30/118/55 52/188/55
o Cube.003
v -0.244325 -0.807373 0.107256
v -0.244325 -0.807373 -0.107256
v -0.244325 -0.807373 0.000000
v -0.244325 -0.300834 0.212721
v -0.244325 -0.300834 -0.212721
v -0.244325 -0.300834 0.000000
v -0.546590 -0.300834 0.000000
v -0.441194 -0.300834 -0.212721
v -0.441194 -0.300834 0.212721
v -0.244325 0.027357 0.000006
v -0.244325 0.027357 -0.234214
v -0.244325 0.027357 0.234227
v -0.594395 0.025545 -0.000284
v -0.460691 0.027357 -0.234214
v -0.460691 0.027357 0.234227
v -0.244325 0.316693 -0.008986
v -0.244325 0.316693 -0.238242
v -0.244325 0.316693 0.220271
v -0.573188 0.161596 -0.009042
v -0.470009 0.213524 -0.238242
v -0.470009 0.213524 0.220271
v -0.390938 0.454655 0.009145
v -0.391043 0.454082 -0.063485
v -0.391042 0.454075 0.081715
v -0.481184 0.403914 0.009116
v -0.449753 0.421404 -0.063483
v -0.449753 0.421404 0.081715
v -0.470444 0.490191 0.005056
v -0.468073 0.174840 -0.237405
v -0.244325 0.256571 -0.237405
v -0.244325 0.256571 0.223171
v -0.468073 0.174840 0.223171
v -0.577595 0.133325 -0.007222
v -0.244325 0.256571 -0.007117
vn 1.0000 -0.0000 -0.0000
vn -0.8493 -0.4476 0.2798
vn -0.8493 -0.4476 -0.2798
vn -0.0000 -0.2038 0.9790
vn -0.8765 -0.1057 -0.4696
vn -0.0000 -0.2038 -0.9790
vn -0.0239 0.0581 0.9980
vn 0.0069 -0.0168 -0.9998
vn -0.0000 -0.0653 -0.9979
vn -0.0000 -0.0654 0.9979
vn -0.8768 -0.1054 0.4692
vn 0.6840 0.7294 0.0016
vn -0.8928 0.3100 0.3268
vn -0.9086 0.0170 -0.4173
vn -0.9106 0.0624 0.4086
vn -0.3587 0.6446 0.6752
vn -0.3399 0.6105 -0.7154
vn -0.2977 0.6231 -0.7233
vn -0.2601 0.5446 0.7973
vn -0.8818 0.3536 -0.3120
vn 0.6838 0.7296 -0.0016
vn -0.9217 0.0971 -0.3757
vn 0.4084 0.9128 -0.0078
vn -0.9209 0.1319 0.3669
vn 0.4077 0.9131 0.0079
vn -0.8867 0.0650 0.4578
vn -0.8862 0.0143 -0.4631
vn 0.0031 -0.0169 -0.9999
vn -0.0108 0.0584 0.9982
vt 0.714203 0.857070
vt 0.644734 0.856103
vt 0.645140 0.826929
vt 0.714407 0.842360
vt 0.713998 0.871780
vt 0.644327 0.885276
vt 0.808950 0.464129
vt 0.795008 0.465447
vt 0.769755 0.394567
vt 0.792835 0.390022
vt 0.822892 0.462810
vt 0.825056 0.389337
vt 0.470866 0.203257
vt 0.446192 0.161979
vt 0.471461 0.157484
vt 0.788861 0.344960
vt 0.825056 0.344288
vt 0.844284 0.611561
vt 0.844300 0.681934
vt 0.817282 0.611558
vt 0.599277 0.887597
vt 0.599724 0.855475
vt 0.453296 0.110077
vt 0.420895 0.106983
vt 0.418237 0.100686
vt 0.451853 0.105887
vt 0.844298 0.535072
vt 0.813606 0.546247
vt 0.813341 0.540947
vt 0.844300 0.526841
vt 0.600171 0.823353
vt 0.814613 0.566450
vt 0.844290 0.566453
vt 0.431028 0.130990
vt 0.458799 0.126050
vt 0.764166 0.350046
vt 0.560464 0.824715
vt 0.560026 0.856156
vt 0.541140 0.853406
vt 0.541358 0.843455
vt 0.471461 0.087955
vt 0.442319 0.072925
vt 0.448416 0.067382
vt 0.824276 0.324148
vt 0.789852 0.330592
vt 0.790112 0.326823
vt 0.824071 0.318866
vt 0.568275 0.856015
vt 0.567835 0.887597
vt 0.559588 0.887597
vt 0.764407 0.329810
vt 0.764471 0.324502
vt 0.568715 0.824432
vt 0.433311 0.070987
vt 0.443221 0.058600
vt 0.824242 0.509870
vt 0.816188 0.514338
vt 0.813376 0.505644
vt 0.790303 0.295928
vt 0.800999 0.293243
vt 0.541080 0.863368
vt 0.790784 0.284395
vt 0.434546 0.064352
vt 0.435860 0.057823
vt 0.782126 0.295028
s 0
usemtl Material.001
f 81/189/56 84/190/56 82/191/56 79/192/56
f 80/193/56 83/194/56 84/190/56 81/189/56
f 81/195/57 79/196/57 87/197/57 85/198/57
f 80/199/58 81/195/58 85/198/58 86/200/58
f 79/201/59 82/202/59 87/203/59
f 86/200/60 85/198/60 91/204/60 92/205/60
f 83/206/61 80/207/61 86/208/61
f 84/190/56 83/194/56 89/209/56 88/210/56
f 82/191/56 84/190/56 88/210/56 90/219/56
f 83/206/64 86/208/64 92/220/64 89/221/64
f 87/203/65 82/202/65 90/222/65 93/223/65
f 85/198/66 87/197/66 93/224/66 91/204/66
f 90/219/56 88/210/56 112/236/56 109/241/56
f 91/204/81 93/224/81 110/239/81 111/233/81
f 88/210/56 89/209/56 108/237/56 112/236/56
f 92/205/82 91/204/82 111/233/82 107/232/82
f 89/221/83 92/220/83 107/216/83 108/215/83
f 93/223/84 90/222/84 109/212/84 110/211/84
usemtl Material
f 110/211/62 109/212/62 96/213/62 99/214/62
f 108/215/63 107/216/63 98/217/63 95/218/63
f 96/225/67 94/226/67 100/227/67 102/228/67
f 97/229/68 99/214/68 105/230/68 103/231/68
f 107/232/69 111/233/69 97/234/69 98/235/69
f 112/236/56 108/237/56 95/238/56 94/226/56
f 111/233/70 110/239/70 99/240/70 97/234/70
f 109/241/56 112/236/56 94/226/56 96/225/56
f 105/230/71 102/242/71 106/243/71
f 101/244/72 104/245/72 106/246/72
f 95/218/73 98/217/73 104/245/73 101/244/73
f 99/214/74 96/213/74 102/242/74 105/230/74
f 98/235/75 97/234/75 103/247/75 104/248/75
f 94/226/76 95/238/76 101/249/76 100/227/76
f 104/248/77 103/247/77 106/250/77
f 100/251/78 101/252/78 106/243/78
f 103/247/79 105/253/79 106/250/79
f 102/242/80 100/251/80 106/243/80
